<svg width="1200" height="800" xmlns="http://www.w3.org/2000/svg">
  <defs>
    <style>
      .title { font-family: Arial, sans-serif; font-size: 24px; font-weight: bold; fill: #2563eb; }
      .section-title { font-family: Arial, sans-serif; font-size: 16px; font-weight: bold; fill: #1e40af; }
      .text { font-family: Arial, sans-serif; font-size: 12px; fill: #374151; }
      .small-text { font-family: Arial, sans-serif; font-size: 10px; fill: #6b7280; }
      .box { fill: #f8fafc; stroke: #e2e8f0; stroke-width: 2; rx: 8; }
      .process-box { fill: #dbeafe; stroke: #3b82f6; stroke-width: 2; rx: 6; }
      .database-box { fill: #dcfce7; stroke: #16a34a; stroke-width: 2; rx: 6; }
      .security-box { fill: #fef3c7; stroke: #f59e0b; stroke-width: 2; rx: 6; }
      .deployment-box { fill: #fce7f3; stroke: #ec4899; stroke-width: 2; rx: 6; }
      .arrow { stroke: #6b7280; stroke-width: 2; fill: none; marker-end: url(#arrowhead); }
      .flow-arrow { stroke: #3b82f6; stroke-width: 3; fill: none; marker-end: url(#bluearrowhead); }
    </style>
    <marker id="arrowhead" markerWidth="10" markerHeight="7" refX="9" refY="3.5" orient="auto">
      <polygon points="0 0, 10 3.5, 0 7" fill="#6b7280" />
    </marker>
    <marker id="bluearrowhead" markerWidth="10" markerHeight="7" refX="9" refY="3.5" orient="auto">
      <polygon points="0 0, 10 3.5, 0 7" fill="#3b82f6" />
    </marker>
  </defs>
  
  <!-- Background -->
  <rect width="1200" height="800" fill="#ffffff" stroke="#e5e7eb" stroke-width="1"/>
  
  <!-- Title -->
  <text x="600" y="30" text-anchor="middle" class="title">Do Good Hub - Application Workflow</text>
  
  <!-- Development Workflow Section -->
  <rect x="20" y="60" width="280" height="320" class="box"/>
  <text x="30" y="80" class="section-title">🚀 Development Workflow</text>
  
  <!-- Environment Setup -->
  <rect x="30" y="90" width="260" height="60" class="process-box"/>
  <text x="40" y="110" class="text">1. Environment Setup</text>
  <text x="40" y="125" class="small-text">• Node.js 18+ & PostgreSQL</text>
  <text x="40" y="138" class="small-text">• Clone repo & install deps</text>
  
  <!-- Development Process -->
  <rect x="30" y="160" width="260" height="80" class="process-box"/>
  <text x="40" y="180" class="text">2. Development Process</text>
  <text x="40" y="195" class="small-text">• Frontend: React + TypeScript</text>
  <text x="40" y="208" class="small-text">• Backend: Python + FastAPI</text>
  <text x="40" y="221" class="small-text">• Hot reload & live testing</text>
  
  <!-- Code Development -->
  <rect x="30" y="250" width="260" height="80" class="process-box"/>
  <text x="40" y="270" class="text">3. Feature Development</text>
  <text x="40" y="285" class="small-text">• Create feature branch</text>
  <text x="40" y="298" class="small-text">• Implement & test</text>
  <text x="40" y="311" class="small-text">• Code review & merge</text>
  
  <!-- Testing -->
  <rect x="30" y="340" width="260" height="30" class="process-box"/>
  <text x="40" y="360" class="text">4. Testing & Quality Assurance</text>
  
  <!-- Authentication Workflow Section -->
  <rect x="320" y="60" width="280" height="200" class="box"/>
  <text x="330" y="80" class="section-title">🔐 Authentication Workflow</text>
  
  <!-- User Roles -->
  <rect x="330" y="90" width="260" height="60" class="security-box"/>
  <text x="340" y="110" class="text">User Roles & Permissions</text>
  <text x="340" y="125" class="small-text">• Admin: Full system access</text>
  <text x="340" y="138" class="small-text">• NGO, Vendor, User roles</text>
  
  <!-- Auth Flow -->
  <rect x="330" y="160" width="260" height="90" class="security-box"/>
  <text x="340" y="180" class="text">JWT Authentication Flow</text>
  <text x="340" y="195" class="small-text">• Login → JWT Token</text>
  <text x="340" y="208" class="small-text">• Token validation</text>
  <text x="340" y="221" class="small-text">• Role-based access control</text>
  <text x="340" y="234" class="small-text">• 7-day token expiration</text>
  
  <!-- Database Workflow Section -->
  <rect x="620" y="60" width="280" height="200" class="box"/>
  <text x="630" y="80" class="section-title">📊 Database Workflow</text>
  
  <!-- Database Schema -->
  <rect x="630" y="90" width="260" height="80" class="database-box"/>
  <text x="640" y="110" class="text">PostgreSQL Schema</text>
  <text x="640" y="125" class="small-text">• profiles, user_roles, ngos</text>
  <text x="640" y="138" class="small-text">• vendors, packages, donations</text>
  <text x="640" y="151" class="small-text">• transactions, invoices</text>
  
  <!-- Migration Process -->
  <rect x="630" y="180" width="260" height="70" class="database-box"/>
  <text x="640" y="200" class="text">Migration & Seeding</text>
  <text x="640" y="215" class="small-text">• Database migrations</text>
  <text x="640" y="228" class="small-text">• Sample data seeding</text>
  <text x="640" y="241" class="small-text">• Backup & restore</text>
  
  <!-- Deployment Workflow Section -->
  <rect x="920" y="60" width="260" height="200" class="box"/>
  <text x="930" y="80" class="section-title">🚀 Deployment Workflow</text>
  
  <!-- Build Process -->
  <rect x="930" y="90" width="240" height="60" class="deployment-box"/>
  <text x="940" y="110" class="text">Build & Deploy</text>
  <text x="940" y="125" class="small-text">• Frontend: npm run build</text>
  <text x="940" y="138" class="small-text">• Backend: TypeScript compile</text>
  
  <!-- Docker Deployment -->
  <rect x="930" y="160" width="240" height="90" class="deployment-box"/>
  <text x="940" y="180" class="text">Docker Deployment</text>
  <text x="940" y="195" class="small-text">• docker-compose up</text>
  <text x="940" y="208" class="small-text">• Frontend: Port 8080</text>
  <text x="940" y="221" class="small-text">• Backend: Port 3001</text>
  <text x="940" y="234" class="small-text">• PostgreSQL: Port 5432</text>
  
  <!-- System Architecture Section -->
  <rect x="20" y="400" width="560" height="180" class="box"/>
  <text x="30" y="420" class="section-title">🏗️ System Architecture</text>
  
  <!-- Frontend -->
  <rect x="30" y="430" width="170" height="140" class="process-box"/>
  <text x="40" y="450" class="text">Frontend (React)</text>
  <text x="40" y="470" class="small-text">• React 18 + TypeScript</text>
  <text x="40" y="485" class="small-text">• Vite + Tailwind CSS</text>
  <text x="40" y="500" class="small-text">• Shadcn/ui components</text>
  <text x="40" y="515" class="small-text">• React Router</text>
  <text x="40" y="530" class="small-text">• Custom API client</text>
  <text x="40" y="545" class="small-text">• JWT token management</text>
  <text x="40" y="560" class="small-text">Port: 8080</text>
  
  <!-- Backend -->
  <rect x="210" y="430" width="170" height="140" class="database-box"/>
  <text x="220" y="450" class="text">Backend (Python)</text>
  <text x="220" y="470" class="small-text">• FastAPI + Python</text>
  <text x="220" y="485" class="small-text">• JWT Authentication</text>
  <text x="220" y="500" class="small-text">• bcryptjs password hash</text>
  <text x="220" y="515" class="small-text">• Rate limiting & CORS</text>
  <text x="220" y="530" class="small-text">• RESTful API endpoints</text>
  <text x="220" y="545" class="small-text">• Error handling</text>
  <text x="220" y="560" class="small-text">Port: 3001</text>
  
  <!-- Database -->
  <rect x="390" y="430" width="180" height="140" class="security-box"/>
  <text x="400" y="450" class="text">Database (PostgreSQL)</text>
  <text x="400" y="470" class="small-text">• PostgreSQL 15</text>
  <text x="400" y="485" class="small-text">• Connection pooling</text>
  <text x="400" y="500" class="small-text">• Migration system</text>
  <text x="400" y="515" class="small-text">• Backup & restore</text>
  <text x="400" y="530" class="small-text">• Performance optimization</text>
  <text x="400" y="545" class="small-text">• Security & validation</text>
  <text x="400" y="560" class="small-text">Port: 5432</text>
  
  <!-- Maintenance & Security Section -->
  <rect x="600" y="400" width="580" height="180" class="box"/>
  <text x="610" y="420" class="section-title">🔧 Maintenance & Security</text>
  
  <!-- Monitoring -->
  <rect x="610" y="430" width="180" height="140" class="process-box"/>
  <text x="620" y="450" class="text">Monitoring & Logs</text>
  <text x="620" y="470" class="small-text">• Health check endpoints</text>
  <text x="620" y="485" class="small-text">• Application logs</text>
  <text x="620" y="500" class="small-text">• Error tracking</text>
  <text x="620" y="515" class="small-text">• Performance metrics</text>
  <text x="620" y="530" class="small-text">• Database monitoring</text>
  <text x="620" y="545" class="small-text">• Security audits</text>
  
  <!-- Security -->
  <rect x="800" y="430" width="180" height="140" class="security-box"/>
  <text x="810" y="450" class="text">Security Features</text>
  <text x="810" y="470" class="small-text">• JWT token security</text>
  <text x="810" y="485" class="small-text">• Password hashing</text>
  <text x="810" y="500" class="small-text">• Rate limiting</text>
  <text x="810" y="515" class="small-text">• CORS protection</text>
  <text x="810" y="530" class="small-text">• Input validation</text>
  <text x="810" y="545" class="small-text">• SQL injection prevention</text>
  
  <!-- Backup & Recovery -->
  <rect x="990" y="430" width="180" height="140" class="deployment-box"/>
  <text x="1000" y="450" class="text">Backup & Recovery</text>
  <text x="1000" y="470" class="small-text">• Automated DB backups</text>
  <text x="1000" y="485" class="small-text">• Version control</text>
  <text x="1000" y="500" class="small-text">• Rollback procedures</text>
  <text x="1000" y="515" class="small-text">• Disaster recovery</text>
  <text x="1000" y="530" class="small-text">• Data migration</text>
  <text x="1000" y="545" class="small-text">• Environment sync</text>
  
  <!-- Data Flow Section -->
  <rect x="20" y="600" width="1160" height="180" class="box"/>
  <text x="30" y="620" class="section-title">🔄 Application Data Flow</text>
  
  <!-- User Interaction -->
  <rect x="30" y="640" width="120" height="60" class="process-box"/>
  <text x="40" y="660" class="text">User Interaction</text>
  <text x="40" y="675" class="small-text">• Login/Register</text>
  <text x="40" y="688" class="small-text">• Browse NGOs</text>
  
  <!-- Frontend Processing -->
  <rect x="170" y="640" width="120" height="60" class="process-box"/>
  <text x="180" y="660" class="text">Frontend</text>
  <text x="180" y="675" class="small-text">• React components</text>
  <text x="180" y="688" class="small-text">• State management</text>
  
  <!-- API Layer -->
  <rect x="310" y="640" width="120" height="60" class="database-box"/>
  <text x="320" y="660" class="text">API Layer</text>
  <text x="320" y="675" class="small-text">• Express routes</text>
  <text x="320" y="688" class="small-text">• Middleware</text>
  
  <!-- Authentication -->
  <rect x="450" y="640" width="120" height="60" class="security-box"/>
  <text x="460" y="660" class="text">Authentication</text>
  <text x="460" y="675" class="small-text">• JWT validation</text>
  <text x="460" y="688" class="small-text">• Role checking</text>
  
  <!-- Business Logic -->
  <rect x="590" y="640" width="120" height="60" class="process-box"/>
  <text x="600" y="660" class="text">Business Logic</text>
  <text x="600" y="675" class="small-text">• Data processing</text>
  <text x="600" y="688" class="small-text">• Validation</text>
  
  <!-- Database -->
  <rect x="730" y="640" width="120" height="60" class="database-box"/>
  <text x="740" y="660" class="text">Database</text>
  <text x="740" y="675" class="small-text">• PostgreSQL</text>
  <text x="740" y="688" class="small-text">• CRUD operations</text>
  
  <!-- Response -->
  <rect x="870" y="640" width="120" height="60" class="deployment-box"/>
  <text x="880" y="660" class="text">Response</text>
  <text x="880" y="675" class="small-text">• JSON data</text>
  <text x="880" y="688" class="small-text">• Error handling</text>
  
  <!-- UI Update -->
  <rect x="1010" y="640" width="120" height="60" class="process-box"/>
  <text x="1020" y="660" class="text">UI Update</text>
  <text x="1020" y="675" class="small-text">• State update</text>
  <text x="1020" y="688" class="small-text">• Re-render</text>
  
  <!-- Flow Arrows -->
  <line x1="150" y1="670" x2="170" y2="670" class="flow-arrow"/>
  <line x1="290" y1="670" x2="310" y2="670" class="flow-arrow"/>
  <line x1="430" y1="670" x2="450" y2="670" class="flow-arrow"/>
  <line x1="570" y1="670" x2="590" y2="670" class="flow-arrow"/>
  <line x1="710" y1="670" x2="730" y2="670" class="flow-arrow"/>
  <line x1="850" y1="670" x2="870" y2="670" class="flow-arrow"/>
  <line x1="990" y1="670" x2="1010" y2="670" class="flow-arrow"/>
  
  <!-- Return flow -->
  <line x1="1010" y1="710" x2="150" y2="710" class="arrow"/>
  <text x="580" y="725" class="small-text">← Response Flow</text>
  
  <!-- Connection Arrows -->
  <line x1="200" y1="520" x2="210" y2="520" class="arrow"/>
  <line x1="380" y1="520" x2="390" y2="520" class="arrow"/>
  
  <!-- Footer -->
  <text x="600" y="770" text-anchor="middle" class="small-text">Do Good Hub - Transparent Donation Platform | Node.js + React + PostgreSQL</text>
</svg>